<svg xmlns="http://www.w3.org/2000/svg" viewBox="0 0 33.11 30.85"><defs><style>.cls-1{fill:#fff;}</style></defs><g id="Capa_2" data-name="Capa 2"><g id="Capa_1-2" data-name="Capa 1"><path class="cls-1" d="M32,10.66H20.54a1.14,1.14,0,0,0-1.15,1.15v7.92H9.12A1.14,1.14,0,0,0,8,20.88V29.7a1.14,1.14,0,0,0,1.15,1.15H32a1.15,1.15,0,0,0,1.15-1.15V11.81A1.15,1.15,0,0,0,32,10.66Zm-1.15,17.9H10.26V22H20.54a1.15,1.15,0,0,0,1.15-1.14V13h9.12Z"/><path class="cls-1" d="M19.49,4.12l1.9,3.46a1.15,1.15,0,0,0,1,.6A1.07,1.07,0,0,0,23,8a1.16,1.16,0,0,0,.46-1.57L20.19.6A1.2,1.2,0,0,0,19.5,0a1.23,1.23,0,0,0-.88.1L12.75,3.36a1.16,1.16,0,0,0,1.11,2l3.41-1.87a19.2,19.2,0,0,1-6.39,9A19.51,19.51,0,0,1,1,17.13,1.15,1.15,0,0,0,0,18.4a1.14,1.14,0,0,0,1.14,1h.13a21.87,21.87,0,0,0,11.07-5.1A21.46,21.46,0,0,0,19.49,4.12Z"/></g></g></svg>