<svg xmlns="http://www.w3.org/2000/svg" viewBox="0 0 28.13 30"><defs><style>.cls-1{fill:#fff;}</style></defs><g id="Capa_2" data-name="Capa 2"><g id="Capa_1-2" data-name="Capa 1"><path class="cls-1" d="M27.71,19.06a4.3,4.3,0,0,0-.56-.44,4.7,4.7,0,0,0-6,.63l-.69.69-.3.3a3,3,0,0,0-3-1.54H15.6c-1.33,0-2.71,0-4.07,0a4.35,4.35,0,0,0-1.44.24,3.64,3.64,0,0,0-2.2,2.25.73.73,0,0,1-.16.27,6.1,6.1,0,0,1-.86,0H6.63v-.23c0-.22,0-.42,0-.62a1,1,0,0,0-1-1c-1.65,0-3.16,0-4.6,0a.94.94,0,0,0-1,1C0,23.52,0,26.33,0,29a.94.94,0,0,0,1,1h4.6a1,1,0,0,0,1-1c0-.2,0-.4,0-.62v-.23H18.37a4.38,4.38,0,0,0,3.27-1.35c.94-1,1.88-1.9,2.83-2.84l1.28-1.27.61-.61,1.39-1.4a1,1,0,0,0,0-1.6ZM17.52,22.42c-.65,0-1.3,0-1.94,0H14.25a1,1,0,0,0-.85.86.93.93,0,0,0,.69,1,1.65,1.65,0,0,0,.48.06h2.86a3,3,0,0,0,2.23-.93c.86-.88,1.87-1.89,2.89-2.89A2.66,2.66,0,0,1,25.6,20v0l-.2.21-1.53,1.53-3.57,3.58a2.58,2.58,0,0,1-1.94.81H6.66V23.46H8.34c.9,0,1.19-.26,1.29-1.16a1.77,1.77,0,0,1,1.73-1.63c2.06,0,4.1,0,6.18,0a.88.88,0,1,1,0,1.76Zm-12.89-.8V28H2V21.62Z"/><path class="cls-1" d="M15.93,16.9h0A8.47,8.47,0,0,0,24.4,8.46,8.48,8.48,0,0,0,15.94,0h0a8.45,8.45,0,0,0,0,16.9ZM9.44,8.46A6.49,6.49,0,0,1,15.93,2h0a6.5,6.5,0,1,1,0,13h0a6.52,6.52,0,0,1-6.49-6.5Z"/></g></g></svg>