<svg xmlns="http://www.w3.org/2000/svg" viewBox="0 0 20 20"><defs><style>.cls-1{fill:#fff;}</style></defs><g id="Capa_2" data-name="Capa 2"><g id="Capa_1-2" data-name="Capa 1"><path class="cls-1" d="M4.68,12.31V7.21A2.37,2.37,0,0,1,7.2,4.68H17.5A2.35,2.35,0,0,1,20,7.19v10.3A2.36,2.36,0,0,1,17.5,20H7.17a2.36,2.36,0,0,1-2.49-2.49Zm1.58,0V17.4c0,.79.23,1,1,1H17.42c.76,0,1-.24,1-1V7.24c0-.74-.25-1-1-1H7.23c-.73,0-1,.24-1,1Z"/><path class="cls-1" d="M15.3,3.07H13.75V2.4a.79.79,0,0,0-.83-.84c-.4,0-.8,0-1.2,0H2.66c-.86,0-1.09.23-1.09,1.08v10c0,.83.23,1.07,1.06,1.07h.5c0,.49,0,.94,0,1.39A.23.23,0,0,1,3,15.3,2.48,2.48,0,0,1,.29,14.05,2.42,2.42,0,0,1,0,13Q0,7.65,0,2.28A2.28,2.28,0,0,1,2.29,0H13A2.29,2.29,0,0,1,15.3,2.18C15.32,2.46,15.3,2.75,15.3,3.07Z"/></g></g></svg>