<svg xmlns="http://www.w3.org/2000/svg" viewBox="0 0 29.17 30"><defs><style>.cls-1{fill:#fff;}</style></defs><g id="Capa_2" data-name="Capa 2"><g id="Capa_1-2" data-name="Capa 1"><path class="cls-1" d="M0,4.32H4.59V0h20V4.3h4.6c0,.21,0,.38,0,.54V9.77a4.76,4.76,0,0,1-4.7,4.81.69.69,0,0,0-.68.45A8.64,8.64,0,0,1,19,19.59c-.71.28-1,.64-.91,1.39a13.52,13.52,0,0,1,0,1.69H19.2a3.37,3.37,0,0,1,3.6,3.46V30H6.39v-.5c0-1.15,0-2.32,0-3.47a3.34,3.34,0,0,1,3.45-3.36c.4,0,.81,0,1.25,0,0-.86,0-1.66,0-2.45,0-.11-.16-.27-.27-.32-.38-.2-.77-.35-1.15-.54A8.69,8.69,0,0,1,5.39,15a.66.66,0,0,0-.64-.45A4.74,4.74,0,0,1,0,9.71V4.32ZM12.94,22.63h3.3v-.54c0-.9,0-1.82,0-2.72a.6.6,0,0,1,.44-.68c.6-.23,1.18-.51,1.77-.79a6.84,6.84,0,0,0,4.28-6.48c0-3.05,0-6.11,0-9.16,0-.16,0-.33,0-.5H6.49a2,2,0,0,0,0,.32c0,3.22-.06,6.45,0,9.67a6.7,6.7,0,0,0,4,6.05c.64.32,1.29.61,1.95.88a.66.66,0,0,1,.48.75C12.91,20.48,12.94,21.54,12.94,22.63Zm8,5.62V26.06a1.53,1.53,0,0,0-1.67-1.62c-.62,0-1.25,0-1.87,0H10c-.91,0-1.6.43-1.67,1.19a25.38,25.38,0,0,0,0,2.62ZM1.85,6.11v.52c0,1.21,0,2.42,0,3.61a2.77,2.77,0,0,0,2.73,2.51V6.11Zm22.69,6.67a2.8,2.8,0,0,0,2.73-2.47c.09-1.37,0-2.75,0-4.12,0,0,0,0-.06-.06H24.54Z"/></g></g></svg>