<svg xmlns="http://www.w3.org/2000/svg" viewBox="0 0 18.83 30.69"><defs><style>.cls-1{fill:#fff;}</style></defs><g id="Capa_2" data-name="Capa 2"><g id="Capa_1-2" data-name="Capa 1"><path class="cls-1" d="M7.12,30.69a1,1,0,0,1-.35-.06A1.13,1.13,0,0,1,6,29.47l.74-10.15H1.14a1.13,1.13,0,0,1-1-1.74L10.74.54a1.14,1.14,0,0,1,2.11.68l-.74,10.14h5.58a1.17,1.17,0,0,1,1,.59,1.15,1.15,0,0,1,0,1.16l-10.57,17A1.14,1.14,0,0,1,7.12,30.69Zm1.93-12.8a1.2,1.2,0,0,1,0,.38L8.59,25l7.05-11.36H10.89a1.14,1.14,0,0,1-1.11-.87,1.1,1.1,0,0,1,0-.36l.49-6.74L3.19,17H7.94A1.15,1.15,0,0,1,9.05,17.89Z"/></g></g></svg>