<svg xmlns="http://www.w3.org/2000/svg" viewBox="0 0 26.14 31"><defs><style>.cls-1{fill:#fff;}</style></defs><g id="Capa_2" data-name="Capa 2"><g id="Capa_1-2" data-name="Capa 1"><path class="cls-1" d="M17.17,5l.37-3A1.13,1.13,0,0,0,16.85.76a9.81,9.81,0,0,0-7.56,0,1.14,1.14,0,0,0-.7,1.16L8.91,5C3.54,7.46,0,14.06,0,19.09,0,25.66,5.86,31,13.07,31s13.07-5.34,13.07-11.91C26.14,14,22.57,7.41,17.17,5Zm-2-2.41L15,4.28a9.37,9.37,0,0,0-3.84,0L11,2.58A7.48,7.48,0,0,1,15.17,2.58Zm-2.1,26.14c-5.95,0-10.79-4.32-10.79-9.63,0-4.44,3.41-10.58,8.3-12.3h0a7.34,7.34,0,0,1,5,0h0c4.89,1.72,8.3,7.86,8.3,12.3C23.86,24.4,19,28.72,13.07,28.72Z"/><path class="cls-1" d="M10,11.26a7.3,7.3,0,0,0,3,.66,7.37,7.37,0,0,0,3-.66,1.16,1.16,0,0,0,.66-.92l.11-1.08a1.14,1.14,0,0,0-1-1.24,1.12,1.12,0,0,0-1.25,1l0,.38a5,5,0,0,1-3,0l0-.38a1.14,1.14,0,1,0-2.27.23l.11,1.08A1.14,1.14,0,0,0,10,11.26Z"/><path class="cls-1" d="M21.63,15.62c-.45-2.12-5.49-2.45-8.56-2.45S5,13.5,4.5,15.62a9.62,9.62,0,0,0-.52,3C4,23.24,8.05,27,13.07,27s9.09-3.74,9.09-8.32A9.64,9.64,0,0,0,21.63,15.62ZM13.07,24.7c-3.76,0-6.82-2.71-6.82-6a7.51,7.51,0,0,1,.42-2.33c.58-.34,2.82-.89,6.4-.89s5.81.55,6.4.89a7.49,7.49,0,0,1,.41,2.33C19.88,22,16.83,24.7,13.07,24.7Z"/></g></g></svg>