<?xml version="1.0" encoding="utf-8"?>
<!-- Generator: Adobe Illustrator 22.0.0, SVG Export Plug-In . SVG Version: 6.00 Build 0)  -->
<svg version="1.1" id="Capa_1" xmlns="http://www.w3.org/2000/svg" xmlns:xlink="http://www.w3.org/1999/xlink" x="0px" y="0px"
	 viewBox="0 0 384 384" style="enable-background:new 0 0 384 384;" xml:space="preserve">
<style type="text/css">
	.st0{fill:#FFFFFF;}
</style>
<path class="st0" d="M0.5,181c0.5-3.8,1-7.6,1.5-11.5c0.6-5.4,3.8-8.5,8.4-8c4.5,0.4,7.2,4.1,6.6,9.6c-1.8,14.6-1.8,29.2,0,43.7
	c4.4,34.6,17.8,65.4,40.3,92c24.1,28.6,54.3,48.3,90.7,57.3c58.9,14.6,112.3,2.5,159-36.3c31.5-26.2,51-60.1,59.3-100.3
	c17-82.8-29.2-167.7-107.9-198.8C190.9,2.2,116.3,17.9,66,69.2c-1.1,1.1-2.2,2.3-3.9,4.2c4.9,0,8.9,0,12.8,0c3.9,0,7.8-0.1,11.6,0.2
	c3.8,0.3,6.4,3.2,6.6,6.9c0.2,3.8-2.4,7-6.3,7.6c-1.1,0.2-2.2,0.2-3.4,0.2c-11.7,0-23.5,0-35.2,0c-7.3,0-9.7-2.5-9.7-9.7
	c0-12.5-0.1-25,0.1-37.5c0-4.3,2.9-7.2,6.9-7.4c4.2-0.2,7.3,2.4,7.9,6.8c0.2,1.2,0.1,2.5,0.1,3.7c0,5,0,10,0,15.8
	c1.3-1.1,2.1-1.7,2.8-2.4C88.7,25.6,127.5,6.6,172.9,2C275.7-8.3,361,61.9,380,151.9c20.1,94.8-31.4,188.6-121.2,221.4
	c-16.5,6-33.5,9.8-51.1,11.1c-1.1,0.1-2.2,0.4-3.3,0.6c-8,0-16,0-24,0c-0.8-0.2-1.7-0.5-2.5-0.6c-8.8-1.3-17.6-2.1-26.3-3.9
	C77.3,365.7,15.6,301.6,3.5,226.8c-1.2-7.2-2-14.6-3-21.8C0.5,197,0.5,189,0.5,181z"/>
<path class="st0" d="M192.3,312c-65.7-0.3-119.2-54-118.8-119.3C73.9,126.9,127.6,73.5,192.9,74c65.7,0.5,118.8,53.8,118.6,119.1
	C311.3,258.7,257.7,312.3,192.3,312z M296.5,193.1c0.2-57.1-46.6-104-103.9-104.1c-57.2-0.1-104,46.6-104.1,103.9
	c-0.1,57.1,46.6,104,103.9,104.1C249.5,297.1,296.3,250.4,296.5,193.1z"/>
<path class="st0" d="M184.9,252.2c-8.1-1.6-14.7-5.9-20.7-11.5c-3.9-3.7-4.5-8.2-1.5-11.5c3.1-3.4,7.6-3.4,11.5,0.4
	c6.4,6.1,13.6,9.5,22.7,7.8c10-1.9,17.4-9.8,17.1-18.4c-0.4-9.1-8.5-16.8-18.7-17.8c-5.1-0.5-10.3-0.8-15.1-2.3
	c-14.7-4.5-24.4-17.6-24.3-31.6c0.2-14,10-26.8,24.5-31.1c3.8-1.1,5.1-2.7,4.4-6.4c-0.3-1.5-0.2-3-0.1-4.5c0.3-4.1,3.4-7.1,7.3-7.1
	c3.7-0.1,6.9,2.6,7.4,6.6c0.3,2.5,0.4,5,0.4,7.5c0,2,0.8,2.5,2.6,3.3c5,2.1,10,4.5,14.5,7.4c4.2,2.8,4.6,7.7,1.8,11.1
	c-2.7,3.3-7.1,3.6-11,0.5c-6.6-5.2-13.9-6.5-21.9-4.4c-9.1,2.4-15.2,9.9-14.9,17.9c0.4,8.4,7.5,15.9,16.9,17.4
	c4.6,0.7,9.2,0.7,13.7,1.6c13.9,2.9,25,14.3,26.9,27c2.5,16.3-7.1,31.4-23.7,36.5c-4.2,1.3-5.4,3.1-4.7,7c0.2,1.2,0.1,2.5-0.1,3.7
	c-0.5,3.7-3.5,6.4-7.1,6.5c-3.4,0.1-6.7-2.3-7.3-5.8C185.2,258.9,185.1,255.6,184.9,252.2z"/>
</svg>
