<svg xmlns="http://www.w3.org/2000/svg" viewBox="0 0 16.79 20"><defs><style>.cls-1{fill:#fff;}</style></defs><g id="Capa_2" data-name="Capa 2"><g id="Capa_1-2" data-name="Capa 1"><path class="cls-1" d="M16.78,4.72l0-.16,0-.07a.57.57,0,0,0-.13-.21l-3.73-4a.78.78,0,0,0-.22-.15l-.07,0a.65.65,0,0,0-.2,0h-10A2.39,2.39,0,0,0,0,2.39V17.61A2.39,2.39,0,0,0,2.39,20h12a2.4,2.4,0,0,0,2.39-2.39V4.77S16.78,4.74,16.78,4.72ZM15.35,17.61a1,1,0,0,1-.95,1h-12a1,1,0,0,1-1-1V2.39a1,1,0,0,1,1-1h9.23l.05,3.35a.71.71,0,0,0,.72.71h3Z"/><path class="cls-1" d="M11.87,11H4.92a.72.72,0,1,0,0,1.44h7a.72.72,0,0,0,0-1.44Z"/><path class="cls-1" d="M11.87,7.71H4.92a.72.72,0,0,0,0,1.44h7a.72.72,0,1,0,0-1.44Z"/><path class="cls-1" d="M11.87,14.28H4.92a.72.72,0,1,0,0,1.43h7a.72.72,0,1,0,0-1.43Z"/></g></g></svg>