<svg xmlns="http://www.w3.org/2000/svg" viewBox="0 0 13.19 15.5"><defs><style>.cls-1{fill:#fff;}</style></defs><g id="Capa_2" data-name="Capa 2"><g id="Capa_1-2" data-name="Capa 1"><path class="cls-1" d="M6.59,15.5a10.78,10.78,0,0,1-5.18-1.23A2.74,2.74,0,0,1,.05,12.36a2.82,2.82,0,0,1,.6-2.3A13.31,13.31,0,0,1,2.83,8,4.87,4.87,0,0,1,6.58,0h0a4.89,4.89,0,0,1,4.88,4.86A4.82,4.82,0,0,1,10.36,8a13.31,13.31,0,0,1,2.18,2.1h0a2.82,2.82,0,0,1,.6,2.3,2.74,2.74,0,0,1-1.36,1.91A10.79,10.79,0,0,1,6.59,15.5Zm0-14h0a3.32,3.32,0,0,0-2.37,1,3.35,3.35,0,0,0,.26,5,.77.77,0,0,1,.28.64.72.72,0,0,1-.37.59A10.56,10.56,0,0,0,1.8,11a1.27,1.27,0,0,0-.28,1.06,1.24,1.24,0,0,0,.63.88,9.45,9.45,0,0,0,4.44,1A9.46,9.46,0,0,0,11,13a1.24,1.24,0,0,0,.63-.88A1.27,1.27,0,0,0,11.38,11h0A10.21,10.21,0,0,0,8.8,8.72a.74.74,0,0,1-.36-.59.76.76,0,0,1,.27-.64,3.36,3.36,0,0,0-2.12-6Z"/></g></g></svg>