<svg xmlns="http://www.w3.org/2000/svg" viewBox="0 0 12.78 14"><defs><style>.cls-1{fill:#fff;}</style></defs><g id="Capa_2" data-name="Capa 2"><g id="Capa_1-2" data-name="Capa 1"><path class="cls-1" d="M10.71,0h-3a.65.65,0,0,0-.65.65.66.66,0,0,0,.65.66h3a.76.76,0,0,1,.76.76v9.86a.76.76,0,0,1-.76.76h-3a.66.66,0,0,0-.65.66.65.65,0,0,0,.65.65h3a2.07,2.07,0,0,0,2.07-2.07V2.07A2.07,2.07,0,0,0,10.71,0Z"/><path class="cls-1" d="M2.23,7.65H8.38a.65.65,0,0,0,0-1.3H2.23L4.44,4.13a.65.65,0,1,0-.92-.92L.19,6.54a.6.6,0,0,0-.14.21.62.62,0,0,0,0,.5.6.6,0,0,0,.14.21l3.33,3.33A.63.63,0,0,0,4,11a.62.62,0,0,0,.46-.19.64.64,0,0,0,0-.92Z"/></g></g></svg>