<svg xmlns="http://www.w3.org/2000/svg" viewBox="0 0 30 30.01"><defs><style>.cls-1{fill:#fff;}</style></defs><g id="Capa_2" data-name="Capa 2"><g id="Capa_1-2" data-name="Capa 1"><path class="cls-1" d="M7,17.45l1.15-1.52-.44-.36-6.59-5a1.24,1.24,0,0,1-.56-1C.37,6.72.19,3.9,0,1.07,0,.33.35,0,1.1,0L9.55.51a1.29,1.29,0,0,1,1,.56l4.06,5.34c.11.15.22.29.38.47l.37-.45c1.36-1.79,2.73-3.58,4.08-5.37a1.28,1.28,0,0,1,1-.54C23.26.36,26.09.17,28.93,0c.72,0,1.09.32,1.05,1-.16,2.84-.35,5.67-.51,8.5a1.29,1.29,0,0,1-.57,1l-6.56,5-.47.37c.39.51.76,1,1.17,1.54.43-.43.82-.87,1.27-1.24a1.25,1.25,0,0,1,.81-.33,1.16,1.16,0,0,1,.69.53.75.75,0,0,1-.19.94l-1.45,1.47-.47.5a2.57,2.57,0,0,1,.49.31c1.62,1.61,3.24,3.21,4.84,4.84a3.22,3.22,0,0,1-1.73,5.46,3.17,3.17,0,0,1-2.92-1c-1.57-1.58-3.16-3.15-4.73-4.74a2.71,2.71,0,0,1-.34-.53l-1.87,1.9a.91.91,0,0,1-1,.28.87.87,0,0,1-.31-1.47c.42-.44.87-.84,1.37-1.3l-2.39-1.81a.4.4,0,0,0-.32,0l-2.35,1.78c.46.42.89.8,1.3,1.2a.89.89,0,0,1,.11,1.36.92.92,0,0,1-1.36-.13l-1.72-1.72a5.5,5.5,0,0,0-.42.4C8.75,25.8,7.15,27.42,5.53,29a3.08,3.08,0,0,1-3.23.83A3.08,3.08,0,0,1,.06,27.33a3.18,3.18,0,0,1,1-2.94c1.6-1.58,3.18-3.18,4.77-4.76a4.26,4.26,0,0,1,.5-.38L4.88,17.89c-.18-.18-.36-.35-.53-.54a.88.88,0,1,1,1.27-1.22c.34.31.66.65,1,1C6.72,17.22,6.84,17.32,7,17.45Zm19.47-7.24c-1.52-.26-2.88-.52-4.24-.73a.83.83,0,0,0-.64.21q-5.46,5.43-10.9,10.88a2.6,2.6,0,0,0-.24.29l.86.9ZM9.12,19.58a.76.76,0,0,0,.15-.1L20.39,8.35a.66.66,0,0,0,.15-.49c-.08-.62-.2-1.23-.31-1.85-.13-.78-.28-1.56-.44-2.46L8.26,18.69C8.56,19,8.83,19.29,9.12,19.58ZM2.25,8.65c1.79-.31,3.49-.6,5.19-.93a.61.61,0,0,0,.32-.42c.21-1,.39-2.08.57-3.12.11-.64.22-1.27.33-2l-6.82-.4C2,4.12,2.11,6.36,2.25,8.65ZM21.41,2.23c0,.09,0,.12,0,.15.29,1.67.58,3.35.9,5a.6.6,0,0,0,.4.34c1.06.21,2.11.39,3.18.58l1.92.32c.13-2.3.27-4.53.4-6.82Zm-14,18.26L6,21.92c-1.26,1.26-2.52,2.51-3.77,3.78a1.46,1.46,0,1,0,2.1,2q2.49-2.51,5-5c.06-.07.11-.15.14-.19Zm13.12,2.09.22.25,4.8,4.79a1.48,1.48,0,1,0,2.08-2.05l-4.76-4.76-.29-.27ZM11,12.19c-.91-.9-1.79-1.78-2.69-2.64a.63.63,0,0,0-.46-.09L4.8,10l-1.22.23,5.64,4.29C9.82,13.71,10.39,13,11,12.19Zm1.06-1.4c.57-.75,1.09-1.45,1.63-2.13a.4.4,0,0,0,0-.6c-1-1.3-2-2.62-3-3.93-.12-.15-.25-.31-.38-.49,0,.08-.09.11-.09.15C10,5.18,9.69,6.57,9.46,8a.4.4,0,0,0,.11.33C10.37,9.12,11.19,9.93,12.05,10.79Zm5.69,8.28-1.28,1,2.21,1.68.91-.8ZM20.47,17c-.44.33-.84.63-1.18.9l1.62,1.64.87-.81Z"/></g></g></svg>