<svg xmlns="http://www.w3.org/2000/svg" viewBox="0 0 33.72 29"><defs><style>.cls-1{fill:#fff;}</style></defs><g id="Capa_2" data-name="Capa 2"><g id="Capa_1-2" data-name="Capa 1"><path class="cls-1" d="M25.7,8.1A4.36,4.36,0,0,0,25.87,7c0-3.91-5.68-7-12.94-7S0,3.06,0,7a4.49,4.49,0,0,0,.82,2.5A4.49,4.49,0,0,0,0,12a4.41,4.41,0,0,0,.82,2.5A4.36,4.36,0,0,0,0,17a4.49,4.49,0,0,0,.82,2.51A4.49,4.49,0,0,0,0,22c0,3.91,5.68,7,12.93,7a23.22,23.22,0,0,0,6.06-.8A10.61,10.61,0,1,0,25.7,8.1ZM2.91,18.78A2.68,2.68,0,0,1,2.08,17a2.2,2.2,0,0,1,.24-1h0c.23.17.48.34.73.5l.2.12q.39.24.81.45h0c.29.15.6.28.92.41l.24.1q.48.19,1,.36L6.4,18h0c.49.15,1,.27,1.5.39l.53.09c.34.07.69.14,1,.19l.65.07c.32,0,.65.08,1,.1l.72,0,.71,0a10.43,10.43,0,0,0,.57,2.93h-.17a20.59,20.59,0,0,1-2.38-.13C7.2,21.39,4.34,20.3,2.91,18.78ZM2.32,11a6.73,6.73,0,0,0,.73.51l.19.11c.27.16.54.32.84.47h0c.3.14.61.28.93.41l.24.1c.33.12.66.25,1,.36a22.44,22.44,0,0,0,6.67,1h.55a10.81,10.81,0,0,0-.86,2.92h-.54l-.86,0c-.18,0-.35,0-.52-.06-.34,0-.68-.06-1-.11l-.45-.08c-.34-.06-.67-.11-1-.19s-.93-.22-1.37-.36l-.1,0a9.3,9.3,0,0,1-3.86-2.2A2.66,2.66,0,0,1,2.08,12,2.17,2.17,0,0,1,2.32,11ZM12.93,2.08c6.4,0,10.86,2.57,10.86,4.89a2,2,0,0,1-.18.83c-.17,0-.32,0-.5,0a10.68,10.68,0,0,0-8.28,4l-.41,0-.34,0c-.37,0-.75,0-1.15,0a20.54,20.54,0,0,1-6-.86l-.64-.22a8.66,8.66,0,0,1-3.34-2A2.66,2.66,0,0,1,2.08,7C2.08,4.65,6.54,2.08,12.93,2.08ZM2.08,22a2.13,2.13,0,0,1,.24-1h0a8.62,8.62,0,0,0,.86.58l.13.09c.3.17.62.34.95.5l.19.09c.34.15.69.29,1,.43l.18.06c.39.14.78.27,1.2.38h0q.62.16,1.26.3l.2,0q.63.12,1.29.21l.25,0c.44,0,.89.1,1.35.13h.21c.48,0,1,.05,1.46.05l1.09,0h0A10.73,10.73,0,0,0,16.4,26.6a21.77,21.77,0,0,1-3.47.28C6.54,26.88,2.08,24.31,2.08,22Zm21,4.76a8.32,8.32,0,0,1-7.39-4.44,8.2,8.2,0,0,1-1-3.92V18A8.38,8.38,0,0,1,23.11,10a8.76,8.76,0,0,1,.91.05,8.36,8.36,0,0,1-.91,16.68Z"/></g></g></svg>