<?xml version="1.0" encoding="utf-8"?>
<!-- Generator: Adobe Illustrator 22.0.0, SVG Export Plug-In . SVG Version: 6.00 Build 0)  -->
<svg version="1.1" id="Capa_1" xmlns="http://www.w3.org/2000/svg" xmlns:xlink="http://www.w3.org/1999/xlink" x="0px" y="0px"
	 viewBox="0 0 99.2 99.2" style="enable-background:new 0 0 99.2 99.2;" xml:space="preserve">
<style type="text/css">
	.st0{fill:#FFFFFF;}
</style>
<path class="st0" d="M99.4,28.3c-0.4,1.4-1.4,2.4-2.4,3.5C82.6,46.2,68.1,60.7,53.6,75.1c-1.9,1.9-4.2,2.4-6.2,1.2
	c-0.5-0.3-0.9-0.7-1.3-1.1C31.4,60.5,16.7,45.8,2,31.1c-1.4-1.4-2.2-3-1.5-5.1c0.5-1.7,1.6-2.9,3.4-3.3c0.6-0.1,1.2-0.1,1.7-0.1
	c29.5,0,59,0,88.5,0c2.9,0,4.5,1.4,5.3,3.9C99.4,27.1,99.4,27.7,99.4,28.3z"/>
</svg>
