<svg xmlns="http://www.w3.org/2000/svg" viewBox="0 0 31.17 31.17"><defs><style>.cls-1{fill:#fff;}</style></defs><g id="Capa_2" data-name="Capa 2"><g id="Capa_1-2" data-name="Capa 1"><path class="cls-1" d="M17.61,15.16c-.69-.33-1.44-.53-2.14-.82A7,7,0,0,1,14,13.62a1.43,1.43,0,0,1,.32-2.56,3.43,3.43,0,0,1,2.63,0,1.34,1.34,0,0,1,.93,1.21,1.09,1.09,0,0,0,1.21,1.05,1.12,1.12,0,0,0,1-1.19,3.12,3.12,0,0,0-1.62-2.78,16,16,0,0,0-1.75-.78c0-.25,0-.56,0-.88a1.11,1.11,0,0,0-1.11-1.1,1.14,1.14,0,0,0-1.13,1.1c0,.31,0,.63,0,1-.28.08-.51.14-.74.22a3.51,3.51,0,0,0-2.54,2.6A4,4,0,0,0,13.51,16c.7.34,1.47.54,2.2.84a7.69,7.69,0,0,1,1.55.76,1.43,1.43,0,0,1-.32,2.51,3.41,3.41,0,0,1-2.73,0,1.32,1.32,0,0,1-.88-1.19,1.09,1.09,0,0,0-1.19-1.07,1.12,1.12,0,0,0-1,1.23,3.11,3.11,0,0,0,1.53,2.71,16.43,16.43,0,0,0,1.83.84c0,.25,0,.57,0,.88a1.12,1.12,0,0,0,2.24,0c0-.31,0-.63,0-1l.37-.1a2.59,2.59,0,0,0,.37-.11A3.57,3.57,0,0,0,20,19.76,4,4,0,0,0,17.61,15.16Z"/><path class="cls-1" d="M15.58,0A15.59,15.59,0,1,0,31.17,15.58,15.6,15.6,0,0,0,15.58,0Zm0,28.87A13.29,13.29,0,1,1,28.87,15.58,13.3,13.3,0,0,1,15.58,28.87Z"/></g></g></svg>