<svg xmlns="http://www.w3.org/2000/svg" viewBox="0 0 22.8 20"><defs><style>.cls-1{fill:#fff;}</style></defs><g id="Capa_2" data-name="Capa 2"><g id="Capa_1-2" data-name="Capa 1"><path class="cls-1" d="M22.77,2.41A2.86,2.86,0,1,0,18.08,5l-2.27,5A3.09,3.09,0,0,0,15,10a2.85,2.85,0,0,0-1.65.91L9.58,9a2.74,2.74,0,0,0,0-1,2.86,2.86,0,1,0-4.67,2.62L3.27,14.32a2.76,2.76,0,0,0-.86,0,2.86,2.86,0,1,0,3.27,2.36,2.78,2.78,0,0,0-1-1.73l1.67-3.73a3,3,0,0,0,.9,0,2.88,2.88,0,0,0,1.62-.88l3.74,2a2.93,2.93,0,0,0,0,1,2.86,2.86,0,0,0,5.65-.91,2.77,2.77,0,0,0-1-1.73l2.26-5a2.58,2.58,0,0,0,.92,0A2.85,2.85,0,0,0,22.77,2.41Z"/></g></g></svg>